<?xml version="1.0" encoding="utf-8"?><!-- Uploaded to: SVG Repo, www.svgrepo.com, Generator: SVG Repo Mixer Tools -->
<svg fill="#000000" width="800px" height="800px" viewBox="0 0 24 24" id="diary" data-name="Flat Line" xmlns="http://www.w3.org/2000/svg" class="icon flat-line"><path id="secondary" d="M7,3H4A1,1,0,0,0,3,4V20a1,1,0,0,0,1,1H7ZM20.71,7.69l-1.4-1.4a1,1,0,0,0-1.4,0L13,11.2V14h2.8l4.91-4.91A1,1,0,0,0,20.71,7.69Z" style="fill: rgb(44, 169, 188); stroke-width: 2;"></path><path id="primary" d="M18,18v2a1,1,0,0,1-1,1H4a1,1,0,0,1-1-1V4A1,1,0,0,1,4,3H15" style="fill: none; stroke: rgb(0, 0, 0); stroke-linecap: round; stroke-linejoin: round; stroke-width: 2;"></path><path id="primary-2" data-name="primary" d="M7,3H4A1,1,0,0,0,3,4V20a1,1,0,0,0,1,1H7ZM20.71,7.69l-1.4-1.4a1,1,0,0,0-1.4,0L13,11.2V14h2.8l4.91-4.91A1,1,0,0,0,20.71,7.69Z" style="fill: none; stroke: rgb(0, 0, 0); stroke-linecap: round; stroke-linejoin: round; stroke-width: 2;"></path></svg>